<svg version="1.2" xmlns="http://www.w3.org/2000/svg" viewBox="0 0 39 39" width="39" height="39"><defs><clipPath clipPathUnits="userSpaceOnUse" id="cp1"><path d="m-1213-6797h1587v7502h-1587z"/></clipPath><linearGradient id="P" gradientUnits="userSpaceOnUse"/><linearGradient id="g1" x2="1" href="#P" gradientTransform="matrix(18.456,49.744,-49.744,18.456,1.544,-10.744)"><stop stop-color="#ce5beb"/><stop offset="1" stop-color="#5b61eb"/></linearGradient></defs><style>.a{fill:url(#g1)}.b{fill:#fff}</style><g clip-path="url(#cp1)"><path class="a" d="m20 39c-10.5 0-19-8.5-19-19 0-10.5 8.5-19 19-19 10.5 0 19 8.5 19 19 0 10.5-8.5 19-19 19z"/><path class="b" d="m22.5 21.4l0.4-2.7h-2.3v-1.7c0-0.8 0.4-1.5 1.4-1.5h1v-2.3q-0.9-0.2-1.8-0.2c-1.9 0-3.1 1.3-3.1 3.7v2h-2.1v2.7h2.1v6.6h2.5v-6.6z"/></g></svg>