<svg version="1.2" xmlns="http://www.w3.org/2000/svg" viewBox="0 0 39 39" width="39" height="39"><defs><clipPath clipPathUnits="userSpaceOnUse" id="cp1"><path d="m-1320-6797h1587v7502h-1587z"/></clipPath></defs><style>.a{fill:#f1f6ff}.b{fill:#2e526b}</style><g clip-path="url(#cp1)"><path class="a" d="m20 39c-10.5 0-19-8.5-19-19 0-10.5 8.5-19 19-19 10.5 0 19 8.5 19 19 0 10.5-8.5 19-19 19z"/><path fill-rule="evenodd" class="b" d="m22.5 27h-6c-1.2 0-2.3-0.5-3.2-1.3-0.8-0.9-1.3-2-1.3-3.2v-6c0-1.2 0.5-2.3 1.3-3.2 0.9-0.8 2-1.3 3.2-1.3h6c1.2 0 2.3 0.5 3.2 1.3 0.8 0.9 1.3 2 1.3 3.2v6c0 1.2-0.5 2.3-1.3 3.2-0.9 0.8-2 1.3-3.2 1.3zm-6-13.6c-0.8 0-1.6 0.3-2.2 0.9-0.6 0.6-0.9 1.4-0.9 2.2v6c0 0.8 0.3 1.6 0.9 2.2 0.6 0.6 1.4 0.9 2.2 0.9h6c0.8 0 1.6-0.3 2.2-0.9 0.6-0.6 0.9-1.4 0.9-2.2v-6c0-0.8-0.3-1.6-0.9-2.2-0.6-0.6-1.4-0.9-2.2-0.9zm5.7 3.5c0.7 0.7 1.1 1.6 1.1 2.6 0 0.7-0.3 1.4-0.7 2.1-0.4 0.6-0.9 1-1.6 1.3-0.7 0.3-1.4 0.4-2.2 0.2-0.7-0.1-1.3-0.5-1.8-1-0.6-0.5-0.9-1.2-1.1-1.9-0.1-0.7 0-1.4 0.2-2.1 0.3-0.7 0.8-1.3 1.4-1.7 0.6-0.4 1.3-0.6 2.1-0.6 0.9 0 1.9 0.4 2.6 1.1zm1.9-2q0.2 0.3 0.3 0.7 0 0.2-0.2 0.4-0.1 0.3-0.4 0.4-0.2 0.1-0.5 0-0.3 0-0.5-0.2-0.1-0.2-0.2-0.5 0-0.2 0.1-0.5 0.1-0.2 0.3-0.4 0.2-0.1 0.5-0.1 0.3 0 0.6 0.2zm-4.5 7q0.4 0 0.9-0.2 0.4-0.2 0.7-0.5 0.4-0.4 0.6-0.8 0.1-0.4 0.1-0.9 0-0.7-0.4-1.3-0.4-0.6-1-0.9-0.7-0.3-1.4-0.1-0.7 0.1-1.2 0.6-0.5 0.5-0.7 1.2-0.1 0.7 0.2 1.4 0.2 0.7 0.8 1.1 0.6 0.4 1.4 0.4z"/></g></svg>