<svg version="1.2" xmlns="http://www.w3.org/2000/svg" viewBox="0 0 39 39" width="39" height="39"><defs><clipPath clipPathUnits="userSpaceOnUse" id="cp1"><path d="m-1266-6797h1587v7502h-1587z"/></clipPath></defs><style>.a{fill:#f1f6ff}.b{fill:#2e526b}</style><g clip-path="url(#cp1)"><path class="a" d="m20 39c-10.5 0-19-8.5-19-19 0-10.5 8.5-19 19-19 10.5 0 19 8.5 19 19 0 10.5-8.5 19-19 19z"/><path class="b" d="m27.9 15.6q-0.7 0.3-1.5 0.4c0.3 0 0.6-0.5 0.8-0.7q0.3-0.4 0.5-1c0 0 0 0 0 0q0 0-0.1 0 0 0 0 0-0.9 0.5-1.8 0.7 0 0-0.1 0 0 0 0 0-0.1-0.1-0.2-0.2-0.4-0.4-0.9-0.6-0.6-0.2-1.3-0.2-0.7 0.1-1.3 0.4-0.6 0.3-1 0.9-0.4 0.5-0.6 1.2-0.1 0.7 0 1.4c0 0.1 0 0.1-0.1 0.1-2.5-0.4-4.5-1.3-6.2-3.3q-0.1-0.2-0.1 0c-0.8 1.1-0.4 3 0.5 3.9q0.2 0.2 0.4 0.3-0.7 0-1.2-0.3-0.1-0.1-0.1 0 0 0.2 0 0.4 0.1 0.9 0.6 1.6 0.5 0.7 1.3 1.1 0.2 0.1 0.4 0.1-0.5 0.1-1.1 0-0.2 0-0.1 0.1c0.5 1.5 1.6 2 2.4 2.2q0.2 0 0.4 0.1 0 0 0 0c-0.3 0.4-1.3 0.8-1.7 0.9q-1.2 0.5-2.6 0.4c-0.1-0.1-0.1-0.1-0.2 0 0 0 0 0 0.1 0.1q0.2 0.1 0.5 0.3 0.8 0.4 1.7 0.7c3.1 0.9 6.5 0.2 8.8-2.2 1.8-1.9 2.5-4.5 2.5-7.1 0-0.1 0.1-0.1 0.2-0.2q0.6-0.5 1.1-1.3 0.1-0.1 0.1-0.2c0-0.1 0-0.1-0.1 0z"/></g></svg>