<svg version="1.2" xmlns="http://www.w3.org/2000/svg" viewBox="0 0 157 59" width="157" height="59"><defs><clipPath clipPathUnits="userSpaceOnUse" id="cp1"><path d="m-166-6751h1587v7502h-1587z"/></clipPath><linearGradient id="P" gradientUnits="userSpaceOnUse"/><linearGradient id="g1" x2="1" href="#P" gradientTransform="matrix(28.169,75.925,-75.925,28.169,1.831,-16.925)"><stop stop-color="#ce5beb"/><stop offset="1" stop-color="#5b61eb"/></linearGradient></defs><style>.a{fill:url(#g1)}.b{fill:#2e526b}.c{fill:#fff}</style><g clip-path="url(#cp1)"><path class="a" d="m30 59c-16 0-29-13-29-29 0-16 13-29 29-29 16 0 29 13 29 29 0 16-13 29-29 29z"/><path fill-rule="evenodd" class="b" d="m71.3 36.8h4.9c0 2.1 1.8 3.2 3.8 3.2 1.8 0 3.6-1 3.6-2.7 0-1.7-2.1-2.2-4.5-2.7-3.4-0.9-7.5-1.9-7.5-6.7 0-4.3 3.2-6.7 8.1-6.7 5.2 0 8.1 2.7 8.1 7.2h-4.8c0-1.9-1.6-2.8-3.4-2.8-1.6 0-3.1 0.6-3.1 2.1 0 1.6 1.9 2.1 4.3 2.6 3.4 0.9 7.7 2 7.7 7 0 4.8-3.9 7.1-8.5 7.1-5.2 0-8.7-2.8-8.7-7.6zm39.6-10.1v17.3h-3.6l-0.5-1.6c-1.4 1.3-3.4 2.1-5.6 2.1-5.1 0-9-3.9-9-9.1 0-5.3 3.9-9.2 9-9.2 2.3 0 4.2 0.8 5.7 2.2l0.5-1.7zm-4.6 8.7c0-2.8-1.9-4.8-4.7-4.8-2.7 0-4.7 2-4.7 4.8 0 2.6 2 4.7 4.7 4.7 2.8 0 4.7-2 4.7-4.7zm28-8.7v17.3h-3.7l-0.4-1.6c-1.5 1.3-3.4 2.1-5.6 2.1-5.2 0-9-3.9-9-9.1 0-5.3 3.8-9.2 9-9.2 2.3 0 4.2 0.8 5.7 2.2l0.5-1.7zm-4.6 8.7c0-2.8-2-4.8-4.7-4.8-2.7 0-4.7 2-4.7 4.8 0 2.6 2 4.7 4.7 4.7 2.7 0 4.7-2 4.7-4.7zm9.4 1.4h4.9c0 2.1 1.8 3.2 3.8 3.2 1.8 0 3.6-1 3.6-2.7 0-1.7-2-2.2-4.4-2.7-3.4-0.9-7.5-1.9-7.5-6.7 0-4.3 3.1-6.7 8.1-6.7 5.1 0 8.1 2.7 8.1 7.2h-4.8c0-1.9-1.6-2.8-3.4-2.8-1.6 0-3.2 0.6-3.2 2.1 0 1.6 1.9 2.1 4.3 2.6 3.4 0.9 7.7 2 7.7 7 0 4.8-3.8 7.1-8.5 7.1-5.1 0-8.7-2.8-8.7-7.6z"/><path class="c" d="m43.4 21h-12.5c-0.5 0-0.7 0.6-0.4 0.9l4 3.9-3.4 3.4-3.6-3.6c-1.3-1.2-3.7-1.2-4.9 0l-6.6 6.5c-1.3 1.4-1.3 3.5 0 4.9 0.7 0.7 1.6 1 2.4 1 0.8 0 1.8-0.3 2.4-1l4.2-4.2 3.6 3.6c1.4 1.4 3.5 1.4 4.9 0l5.9-5.8 3.7 3.7c0.3 0.3 0.9 0.1 0.9-0.4v-12.3c0-0.4-0.2-0.6-0.6-0.6z"/></g></svg>