<svg width="55" height="54" viewBox="0 0 55 54" fill="none" xmlns="http://www.w3.org/2000/svg">
<rect x="0.5" width="54" height="54" rx="8" fill="#044FFF"/>
<path d="M37.8426 18.2101L27.8894 14.0776C27.6401 13.9741 27.3598 13.9741 27.1106 14.0776L17.1574 18.2101C16.7784 18.3675 16.5312 18.7376 16.5312 19.148V24.1716C16.5312 31.0886 20.712 37.3107 27.1162 39.9247C27.3622 40.0251 27.6378 40.0251 27.8838 39.9247C34.2879 37.3108 38.4688 31.0887 38.4688 24.1716V19.148C38.4688 18.7376 38.2217 18.3675 37.8426 18.2101ZM36.4375 24.1716C36.4375 30.0518 32.9844 35.4649 27.5 37.8812C22.1622 35.5295 18.5625 30.2111 18.5625 24.1716V19.8261L27.5 16.1153L36.4375 19.8261V24.1716ZM26.3774 27.5949L30.7428 23.2296C31.1394 22.833 31.7824 22.833 32.1791 23.2296C32.5757 23.6263 32.5757 24.2693 32.179 24.6659L27.0956 29.7494C26.6989 30.1461 26.0558 30.1459 25.6593 29.7494L22.8209 26.911C22.4243 26.5144 22.4243 25.8713 22.8209 25.4747C23.2176 25.0781 23.8606 25.0781 24.2572 25.4747L26.3774 27.5949Z" fill="white"/>
</svg>
