<svg width="55" height="54" viewBox="0 0 55 54" fill="none" xmlns="http://www.w3.org/2000/svg">
<rect x="0.5" width="54" height="54" rx="8" fill="#044FFF"/>
<path d="M25.6456 40.0008C25.645 40.0008 25.6442 40.0008 25.6434 40.0008C24.8297 40.0002 24.0646 39.6828 23.4895 39.1067L15.3887 30.9943C14.2038 29.8072 14.2038 27.8757 15.3887 26.6887L26.3087 15.7478C27.434 14.6202 28.9314 13.999 30.5248 13.999H37.4529C39.1329 13.999 40.5 15.3658 40.5 17.0461V23.953C40.5 25.5453 39.8795 27.042 38.753 28.1672L27.799 39.1097C27.2236 39.6844 26.4588 40.0008 25.6456 40.0008ZM30.5248 16.0304C29.4748 16.0304 28.4881 16.4397 27.7465 17.1828L16.8263 28.1237C16.4313 28.5195 16.4313 29.1632 16.8263 29.559L24.9272 37.6714C25.1187 37.8633 25.3736 37.9693 25.645 37.9695H25.6458C25.9168 37.9695 26.1717 37.8639 26.3634 37.6725L37.3174 26.7301C38.0598 25.9887 38.4686 25.0022 38.4686 23.953V17.0461C38.4686 16.4861 38.013 16.0304 37.4529 16.0304H30.5248ZM33.136 24.3083C31.4559 24.3083 30.089 22.9416 30.089 21.2613C30.089 19.5809 31.4559 18.2142 33.136 18.2142C34.8162 18.2142 36.1831 19.5809 36.1831 21.2613C36.1831 22.9416 34.8162 24.3083 33.136 24.3083ZM33.136 20.2456C32.576 20.2456 32.1203 20.7012 32.1203 21.2613C32.1203 21.8213 32.576 22.2769 33.136 22.2769C33.6963 22.2769 34.1517 21.8213 34.1517 21.2613C34.1517 20.7012 33.6963 20.2456 33.136 20.2456Z" fill="white"/>
</svg>
