<svg version="1.2" xmlns="http://www.w3.org/2000/svg" viewBox="0 0 84 49" width="84" height="49"><defs><clipPath clipPathUnits="userSpaceOnUse" id="cp1"><path d="m-911-1301h1587v7502h-1587z"/></clipPath></defs><style>.a{fill:#f48c06}.b{fill:#2e526b}</style><g clip-path="url(#cp1)"><path fill-rule="evenodd" class="a" d="m7.8 19.3c0.6 2.1 1.2 2.7 3.3 3.4 0.5 0.2 0.9 0.7 0.9 1.2 0 0.6-0.4 1.1-0.9 1.3-2.1 0.7-2.7 1.3-3.3 3.3-0.2 0.6-0.7 0.9-1.3 0.9-0.6 0-1.1-0.3-1.3-0.9-0.6-2-1.2-2.6-3.3-3.3-0.5-0.2-0.9-0.7-0.9-1.3 0-0.5 0.4-1 0.9-1.2 2.1-0.7 2.7-1.3 3.3-3.3 0.2-0.6 0.7-1 1.3-1 0.6 0 1.1 0.4 1.3 0.9zm0.6 4.6c-0.8-0.4-1.4-1.1-1.9-1.9-0.5 0.8-1.1 1.5-1.9 1.9 0.8 0.5 1.4 1.1 1.9 2 0.5-0.9 1.1-1.5 1.9-2zm2 0.9q0 0 0 0z"/><path fill-rule="evenodd" class="a" d="m79.8 19.3c0.6 2.1 1.2 2.7 3.3 3.4 0.5 0.2 0.9 0.7 0.9 1.2 0 0.6-0.4 1.1-0.9 1.3-2.1 0.7-2.7 1.3-3.3 3.3-0.2 0.6-0.7 0.9-1.3 0.9-0.6 0-1.1-0.3-1.3-0.9-0.6-2-1.2-2.6-3.3-3.3-0.5-0.2-0.9-0.7-0.9-1.3 0-0.5 0.4-1 0.9-1.2 2.1-0.7 2.7-1.3 3.3-3.3 0.2-0.6 0.7-1 1.3-1 0.6 0 1.1 0.4 1.3 0.9zm0.6 4.6c-0.8-0.4-1.4-1-1.9-1.9-0.5 0.9-1.1 1.5-1.9 1.9 0.8 0.5 1.4 1.1 1.9 2 0.5-0.9 1.1-1.5 1.9-2zm2 0.9q0 0 0 0z"/><path fill-rule="evenodd" class="b" d="m28.2 9.3c4 0 7.3 3.3 7.3 7.3 0 4-3.3 7.3-7.3 7.3-4 0-7.3-3.3-7.3-7.3 0-4 3.3-7.3 7.3-7.3zm0 2.1c-2.9 0-5.2 2.3-5.2 5.2 0 2.9 2.3 5.2 5.2 5.2 2.9 0 5.2-2.3 5.2-5.2 0-2.9-2.3-5.2-5.2-5.2z"/><path class="b" d="m51.1 28.1h12.5c0.6 0 1.1-0.5 1.1-1.1 0-0.5-0.5-1-1.1-1h-12.5c-0.5 0-1 0.5-1 1 0 0.6 0.5 1.1 1 1.1z"/><path class="b" d="m47 32.2h12.5c0.5 0 1-0.4 1-1 0-0.6-0.5-1-1-1h-12.5c-0.6 0-1.1 0.4-1.1 1 0 0.6 0.5 1 1.1 1z"/><path fill-rule="evenodd" class="b" d="m19.9 48.9c-2.9 0-5.2-2.3-5.2-5.2v-8.3c0-5.2 4.2-9.4 9.4-9.4h8.3c5.2 0 9.4 4.2 9.4 9.4v8.3c0 2.9-2.4 5.2-5.2 5.2zm15.6-2.1h1c1.7 0 3.1-1.4 3.1-3.1v-8.3c0-4.1-3.2-7.3-7.3-7.3h-8.3c-4 0-7.3 3.2-7.3 7.3v8.3c0 1.7 1.4 3.1 3.2 3.1h1v-9.4c0-0.5 0.5-1 1-1 0.6 0 1.1 0.5 1.1 1v9.4h10.4v-9.3c0-0.6 0.5-1.1 1-1.1 0.6 0 1.1 0.5 1.1 1.1z"/><path fill-rule="evenodd" class="a" d="m42.8 1h25q0.4 0 0.7 0.3l5.2 5.2c0.3 0.3 0.4 0.8 0.2 1.1-0.1 0.4-0.5 0.7-0.9 0.7h-4.2v11.4c0 2.3-1.9 4.2-4.2 4.2h-18.7c-2.3 0-4.2-1.9-4.2-4.2v-11.4h-4.2c-0.4 0-0.8-0.3-0.9-0.7-0.2-0.3-0.1-0.8 0.2-1.1l5.2-5.2q0.3-0.3 0.8-0.3zm13.5 3.6v17.2h8.3c1.2 0 2.1-0.9 2.1-2.1v-11.4h-6.2q-0.5 0-0.8-0.3zm-2.1 0l-3.4 3.4c-0.2 0.2-0.4 0.3-0.7 0.3h-6.3v11.5c0 1.1 1 2.1 2.1 2.1h8.3zm3.6-1.5l3.1 3.1h9.6l-3.2-3.1zm-17.7 3.1h9.6l3.1-3.1h-9.5z"/></g></svg>