<svg version="1.2" xmlns="http://www.w3.org/2000/svg" viewBox="0 0 84 61" width="84" height="61"><defs><clipPath clipPathUnits="userSpaceOnUse" id="cp1"><path d="m-261-1296h1587v7502h-1587z"/></clipPath></defs><style>.a{fill:#2e526b}.b{fill:#37c8dc}</style><g clip-path="url(#cp1)"><path fill-rule="evenodd" class="a" d="m23.9 42.9c-0.5 0-0.9-0.4-0.9-0.9v-24.3c0-0.5 0.4-0.9 0.9-0.9h30.6c0.5 0 0.9 0.4 0.9 0.9v20.7c0 0.5-0.4 0.9-0.9 0.9h-5.5c3.1 1.9 5.2 5.2 5.5 9h7.2v-18.9h-3.6c-0.5 0-0.9-0.4-0.9-0.9v-3.6c0-0.5 0.4-0.9 0.9-0.9h7.6c1-2.1 3.6-3.6 5.9-3.6 0.5 0 0.9 0.4 0.9 0.9v9c0 0.5-0.4 0.9-0.9 0.9-1.6 0-3.2-0.7-4.5-1.8 0.2 3.2 1.8 6.1 4.5 7.8 3.4 2.1 5.4 5.8 5.4 9.8v5.8c0 0.5-0.4 0.9-0.9 0.9h-0.1c-0.4 3.5-3.4 6.3-7.1 6.3-3.7 0-6.7-2.8-7.1-6.3h-13.7c-0.4 3.5-3.4 6.3-7.1 6.3-3.7 0-6.7-2.8-7.1-6.3h-5.5c-0.5 0-0.9-0.4-0.9-0.9v-3.6c0-2.3 0.7-4.5 1.9-6.3zm50.3 10.8h-1.9c-0.4 1.5-1.8 2.7-3.4 2.7-1.7 0-3.1-1.2-3.5-2.7h-1.9c0.5 2.6 2.7 4.5 5.4 4.5 2.6 0 4.8-1.9 5.3-4.5zm-6.9 0c0.3 0.5 0.9 0.9 1.6 0.9 0.6 0 1.2-0.4 1.5-0.9zm3.4-31.4c-1.8 0.4-3.6 1.8-3.6 3.5 0 1.7 1.8 3.1 3.6 3.5zm-7.2 29.6h11.7v-4.9c0-2.6-1-5-2.8-6.8-2.9 0-5.3 2.4-5.3 5.4h-1.8c0-3.3 2.2-6.1 5.3-6.9-3.4-2.2-5.3-5.8-5.3-9.8v-3.1h-1.8zm-1.8-24.3v-1.8h-2.7v1.8zm0 22.5h-7.2v1.8h7.2zm-31-9q1-1 2.2-1.8h-8.1v1.8zm12-1.8h-3.6c-5.5 0-9.9 4.4-9.9 9.9v2.7h1.8v-0.9c0-5.5 4.4-9.9 9.9-9.9 5.4 0 9.9 4.4 9.9 9.9v0.9h1.8v-2.7c0-5.5-4.5-9.9-9.9-9.9zm-1.8 18.9c2.7 0 4.9-2 5.3-4.5h-1.8c-0.4 1.5-1.8 2.7-3.5 2.7-1.7 0-3.1-1.2-3.5-2.7h-1.8c0.4 2.5 2.6 4.5 5.3 4.5zm-1.6-4.5c0.3 0.5 0.9 0.9 1.6 0.9 0.6 0 1.2-0.4 1.5-0.9zm9.7-2.7c0-4.5-3.7-8.1-8.1-8.1-4.5 0-8.1 3.6-8.1 8.1v0.9h16.2zm-24.3-32.4v18.9h28.8v-18.9z"/><path fill-rule="evenodd" class="b" d="m50.9 34.7h-23.4v-1.8h1.8v-0.9c0-5.2 4-9.4 9-9.9v-1.8h1.8v1.8c5 0.5 9 4.7 9 9.9v0.9h1.8zm-19.8-1.8h16.2v-0.9c0-4.5-3.6-8.1-8.1-8.1-4.5 0-8.1 3.6-8.1 8.1z"/><path class="b" d="m49.1 15h1.8c0-5-4-9-9-9h-15.3v1.8h15.3c4 0 7.2 3.2 7.2 7.2z"/><path class="b" d="m35.6 9.6v1.8h5.4c2 0 3.6 1.6 3.6 3.6h1.8c0-3-2.4-5.4-5.4-5.4z"/><path class="b" d="m32 9.6h1.8v1.8h-1.8z"/><path class="b" d="m23 6h1.8v1.8h-1.8z"/><path class="b" d="m28.4 9.6h1.8v1.8h-1.8z"/><path class="b" d="m33.7 29.8l1.6 1c0.8-1.4 2.3-2.3 3.9-2.3v-1.8c-2.2 0-4.3 1.2-5.5 3.1z"/><path class="a" d="m65.3 47.4h1.8v1.8h-1.8z"/><path fill-rule="evenodd" class="b" d="m7.8 39.9c0.6 2.1 1.2 2.7 3.3 3.3 0.5 0.2 0.9 0.7 0.9 1.3 0 0.6-0.4 1.1-0.9 1.3-2.1 0.6-2.7 1.2-3.3 3.3-0.2 0.5-0.7 0.9-1.3 0.9-0.6 0-1.1-0.4-1.3-0.9-0.6-2.1-1.2-2.7-3.3-3.3-0.5-0.2-0.9-0.7-0.9-1.3 0-0.6 0.4-1.1 0.9-1.3 2.1-0.6 2.7-1.2 3.3-3.3 0.2-0.5 0.7-0.9 1.3-0.9 0.6 0 1.1 0.4 1.3 0.9zm0.6 4.6c-0.8-0.5-1.4-1.1-1.9-1.9-0.5 0.8-1.1 1.4-1.9 1.9 0.8 0.5 1.4 1.1 1.9 1.9 0.5-0.8 1.1-1.4 1.9-1.9zm2 0.8q0 0 0 0z"/><path fill-rule="evenodd" class="b" d="m79.8 1.9c0.6 2.1 1.2 2.7 3.3 3.3 0.5 0.2 0.9 0.7 0.9 1.3 0 0.6-0.4 1.1-0.9 1.3-2.1 0.6-2.7 1.2-3.3 3.3-0.2 0.5-0.7 0.9-1.3 0.9-0.6 0-1.1-0.4-1.3-0.9-0.6-2.1-1.2-2.7-3.3-3.3-0.5-0.2-0.9-0.7-0.9-1.3 0-0.6 0.4-1.1 0.9-1.3 2.1-0.6 2.7-1.2 3.3-3.3 0.2-0.5 0.7-0.9 1.3-0.9 0.6 0 1.1 0.4 1.3 0.9zm0.6 4.6c-0.8-0.5-1.4-1.1-1.9-1.9-0.5 0.8-1.1 1.4-1.9 1.9 0.8 0.5 1.4 1.1 1.9 1.9 0.5-0.8 1.1-1.4 1.9-1.9zm2 0.8q0 0 0 0z"/></g></svg>