<svg version="1.2" xmlns="http://www.w3.org/2000/svg" viewBox="0 0 97 59" width="97" height="59"><defs><clipPath clipPathUnits="userSpaceOnUse" id="cp1"><path d="m-577-1296h1587v7502h-1587z"/></clipPath></defs><style>.a{fill:#5752da}.b{fill:#2e526b}</style><g clip-path="url(#cp1)"><path fill-rule="evenodd" class="a" d="m7.8 9.9c0.6 2.1 1.2 2.7 3.3 3.3 0.5 0.2 0.9 0.7 0.9 1.3 0 0.6-0.4 1.1-0.9 1.3-2.1 0.6-2.7 1.2-3.3 3.3-0.2 0.5-0.7 0.9-1.3 0.9-0.6 0-1.1-0.4-1.3-0.9-0.6-2.1-1.2-2.7-3.3-3.3-0.5-0.2-0.9-0.7-0.9-1.3 0-0.6 0.4-1.1 0.9-1.3 2.1-0.6 2.7-1.2 3.3-3.3 0.2-0.5 0.7-0.9 1.3-0.9 0.6 0 1.1 0.4 1.3 0.9zm0.6 4.6c-0.8-0.5-1.4-1.1-1.9-1.9-0.5 0.8-1.1 1.4-1.9 1.9 0.8 0.5 1.4 1.1 1.9 1.9 0.5-0.8 1.1-1.4 1.9-1.9zm2 0.8q0 0 0 0z"/><path fill-rule="evenodd" class="a" d="m92.8 32.9c0.6 2.1 1.2 2.7 3.3 3.3 0.5 0.2 0.9 0.7 0.9 1.3 0 0.6-0.4 1.1-0.9 1.3-2.1 0.6-2.7 1.2-3.3 3.3-0.2 0.5-0.7 0.9-1.3 0.9-0.6 0-1.1-0.4-1.3-0.9-0.6-2.1-1.2-2.7-3.3-3.3-0.5-0.2-0.9-0.7-0.9-1.3 0-0.6 0.4-1.1 0.9-1.3 2.1-0.6 2.7-1.2 3.3-3.3 0.2-0.5 0.7-0.9 1.3-0.9 0.6 0 1.1 0.4 1.3 0.9zm0.6 4.6c-0.8-0.5-1.4-1.1-1.9-1.9-0.5 0.8-1.1 1.4-1.9 1.9 0.8 0.5 1.4 1.1 1.9 1.9 0.5-0.8 1.1-1.4 1.9-1.9zm2 0.8q0 0 0 0z"/><path fill-rule="evenodd" class="a" d="m68.8 31.4c0.6 0 1.2 0.3 1.6 0.8 0.3 0.5 0.4 1.1 0.2 1.7l-1.3 3.8q-0.2 0.6-0.7 1-0.5 0.3-1.1 0.3h-3.7c-0.5 0-1-0.2-1.3-0.6-0.4-0.3-0.6-0.8-0.6-1.3v-3.8c0-0.5 0.2-1 0.6-1.3 0.3-0.4 0.8-0.6 1.3-0.6zm0 1.9h-5v3.8h3.7z"/><path fill-rule="evenodd" class="a" d="m46.7 31.4c0.5 0 1 0.2 1.3 0.6 0.4 0.3 0.6 0.8 0.6 1.3v3.8c0 0.5-0.2 1-0.6 1.3-0.3 0.4-0.8 0.6-1.3 0.6h-2.7q-0.6 0-1.1-0.3-0.5-0.4-0.7-0.9l-1.4-3.8c-0.3-0.6-0.2-1.3 0.2-1.8 0.3-0.5 0.9-0.8 1.5-0.8zm0 1.9h-4.1l1.4 3.8h2.7z"/><path fill-rule="evenodd" class="a" d="m59.4 32c0.4 0.3 0.6 0.8 0.6 1.3v3.8c0 0.5-0.2 1-0.6 1.3-0.3 0.4-0.8 0.6-1.3 0.6h-5.7c-0.5 0-1-0.2-1.3-0.6-0.4-0.3-0.6-0.8-0.6-1.3v-3.8c0-0.5 0.2-1 0.6-1.3 0.3-0.4 0.8-0.6 1.3-0.6h5.7c0.5 0 1 0.2 1.3 0.6zm-1.3 1.3h-5.7v3.8h5.7z"/><path fill-rule="evenodd" class="a" d="m58.1 21.9c0.5 0 1 0.2 1.3 0.6 0.4 0.3 0.6 0.8 0.6 1.3v3.8c0 0.5-0.2 1-0.6 1.3-0.3 0.4-0.8 0.6-1.3 0.6h-5.7c-0.5 0-1-0.2-1.3-0.6-0.4-0.3-0.6-0.8-0.6-1.3v-3.8c0-0.5 0.2-1 0.6-1.3 0.3-0.4 0.8-0.6 1.3-0.6zm0 1.9h-5.7v3.8h5.7z"/><path fill-rule="evenodd" class="a" d="m46.7 21.9c0.5 0 1 0.2 1.3 0.6 0.4 0.3 0.6 0.8 0.6 1.3v3.8c0 0.5-0.2 1-0.6 1.3-0.3 0.4-0.8 0.6-1.3 0.6h-6.3q-0.6 0-1.1-0.3-0.5-0.4-0.7-0.9l-1.4-3.8c-0.2-0.6-0.1-1.3 0.2-1.8 0.4-0.5 1-0.8 1.6-0.8zm0 1.9h-7.7l1.4 3.8h6.3z"/><path fill-rule="evenodd" class="a" d="m61.9 23.8c0-0.5 0.2-1 0.6-1.3 0.3-0.4 0.8-0.6 1.3-0.6h7.7c0.6 0 1.2 0.3 1.6 0.8 0.3 0.5 0.4 1.2 0.2 1.8l-1.4 3.8q-0.2 0.5-0.7 0.9-0.5 0.3-1.1 0.3h-6.3c-0.5 0-1-0.2-1.3-0.6-0.4-0.3-0.6-0.8-0.6-1.3v-3.8zm9.6 0h-7.7v3.8h6.3z"/><path fill-rule="evenodd" class="b" d="m44.2 10.8c0.3-0.1 0.6-0.5 0.6-0.8v-3.6c-0.6-0.3-0.9-0.9-0.9-1.6v-1.9c0-0.5 0.2-1 0.5-1.3 0.4-0.4 0.9-0.6 1.4-0.6h3.8c0.5 0 0.9 0.2 1.3 0.6 0.4 0.3 0.6 0.8 0.6 1.3v1.9c0 0.7-0.4 1.3-1 1.6v3.6c0 0.3 0.3 0.7 0.7 0.8q0.2 0.1 0.5 0.2c0.8-5.9 3.8-10 7.4-10 2.4 0 4.5 1.9 5.9 4.9 1.9-0.4 3.9-0.1 5.5 0.9q0.7-0.6 1.4-0.9c0.5-0.3 1.1-0.1 1.3 0.4 0.2 0.4 0.1 1-0.4 1.3q-0.4 0.1-0.7 0.4c1.3 1.3 2.1 3.1 2.1 5 0.1 1.8-0.5 3.7-1.6 5.1h3.6c0.9 0 1.7 0.4 2.3 1.2 0.5 0.8 0.7 1.7 0.4 2.6l-6.7 19c-0.2 0.6-0.6 1-1 1.4-0.5 0.3-1.1 0.5-1.7 0.5h-23.4l0.7 1.9h21.8c0.8 0 1.6 0.4 2.1 1 0.6 0.7 0.8 1.5 0.7 2.3-0.2 0.8-0.7 1.5-1.4 1.9 1.2 1.2 1.6 2.8 1.3 4.3-0.3 1.6-1.4 2.9-2.9 3.5-1.4 0.6-3.1 0.4-4.4-0.5-1.3-0.9-2.1-2.4-2.1-3.9 0-1.1 0.4-2.1 1-2.9h-12.4c0.7 1 1.1 2.2 0.9 3.4-0.1 1.2-0.7 2.3-1.6 3.1-1 0.8-2.2 1.2-3.4 1.1-1.2 0-2.4-0.6-3.2-1.5-0.8-0.9-1.3-2-1.3-3.3 0.1-1.2 0.5-2.4 1.4-3.2-0.5-0.4-0.9-0.9-1.2-1.4l-11.6-31.4h-5.6c-0.9 0-1.7-0.4-2.2-1.1-0.6-0.6-0.8-1.5-0.7-2.3 0.2-0.7 0.5-1.3 1.1-1.7 0.5-0.4 1.2-0.7 1.9-0.6h6.1c1 0 1.9 0.3 2.7 0.8 0.8 0.6 1.5 1.4 1.8 2.3l1.3 3.5h4.1v-2.8c0-1 0.3-2 0.9-2.8 0.5-0.8 1.3-1.4 2.3-1.7zm4.5 40.4c-0.5-0.5-1.2-0.8-2-0.8-0.8 0-1.5 0.3-2 0.8-0.5 0.6-0.8 1.3-0.8 2.1 0 0.7 0.3 1.4 0.8 2 0.5 0.5 1.2 0.8 2 0.8 0.8 0 1.5-0.3 2-0.8 0.6-0.6 0.9-1.3 0.9-2 0-0.8-0.3-1.5-0.9-2.1zm20 4.1c0.5-0.6 0.8-1.3 0.8-2 0-0.8-0.3-1.5-0.8-2.1-0.6-0.5-1.3-0.8-2-0.8-0.8 0-1.5 0.3-2.1 0.8-0.5 0.6-0.8 1.3-0.8 2.1 0 0.7 0.3 1.4 0.8 2 0.6 0.5 1.3 0.8 2.1 0.8 0.7 0 1.4-0.3 2-0.8zm8.2-34.9c-0.2-0.3-0.4-0.4-0.7-0.4h-39.3q-0.6 0-1.1-0.3-0.5-0.4-0.7-0.9l-1.3-3.5c-0.2-0.6-0.6-1.1-1-1.4-0.5-0.4-1.1-0.5-1.7-0.5h-6.1c-0.5-0.1-1 0.3-1.1 0.7 0 0.3 0 0.6 0.2 0.8 0.2 0.2 0.5 0.4 0.8 0.4h5.6q0.6 0 1 0.3 0.5 0.3 0.7 0.9l11.7 31.4c0.2 0.4 0.5 0.6 0.9 0.6h23.6c0.5 0 1-0.3 1.1-0.8 0-0.2 0-0.5-0.2-0.8-0.2-0.2-0.5-0.3-0.7-0.3h-21.8q-0.6 0-1.1-0.3-0.5-0.4-0.7-0.9l-0.7-1.9c-0.2-0.6-0.1-1.3 0.2-1.8 0.4-0.5 1-0.8 1.6-0.8h23.4c0.4 0 0.8-0.3 0.9-0.6l6.7-19c0.1-0.3 0-0.6-0.2-0.9zm-10.2-12.8q-0.5 0-1 0.1c0.6 2.2 1 4.4 1 6.6q0 1.9-0.4 3.8h3.5c1.4-0.9 2.3-2.4 2.5-4.1 0.2-1.7-0.4-3.4-1.6-4.6q-0.2 0.3-0.3 0.6c-0.3 0.4-0.8 0.6-1.3 0.4q-0.4-0.2-0.5-0.5-0.1-0.4 0.1-0.8 0.2-0.4 0.5-0.8c-0.8-0.4-1.7-0.7-2.5-0.7zm-7.6-4.7c-2.8 0-5.2 4.2-5.7 9.6 0.6 0.8 0.9 1.8 0.9 2.8v2.8h10.1q0.4-1.9 0.4-3.8c0-6.2-2.7-11.4-5.7-11.4zm-8.6 9.7c-0.5-0.2-1-0.6-1.4-1-0.3-0.5-0.5-1.1-0.5-1.6v-3.3h-1.9v3.3c0 0.5-0.2 1.1-0.5 1.6-0.4 0.4-0.9 0.8-1.4 1-0.6 0.2-1 0.5-1.4 1-0.3 0.5-0.5 1.1-0.5 1.7v2.8h9.5v-2.8c0-0.6-0.2-1.2-0.5-1.7-0.4-0.5-0.8-0.8-1.4-1zm-4.7-7.8h3.8v-1.9h-3.8z"/><path class="b" d="m58.1 8.6h1.9c0.5 0 1-0.4 1-0.9 0-0.6-0.5-1-1-1h-1.9c-0.5 0-0.9 0.4-0.9 1 0 0.5 0.4 0.9 0.9 0.9z"/><path class="b" d="m57.2 12.4h3.8c0.5 0 0.9-0.4 0.9-0.9 0-0.6-0.4-1-0.9-1h-3.8c-0.6 0-1 0.4-1 1 0 0.5 0.4 0.9 1 0.9z"/><path class="b" d="m57.2 16.2h3.8c0.5 0 0.9-0.4 0.9-0.9 0-0.6-0.4-1-0.9-1h-3.8c-0.6 0-1 0.4-1 1 0 0.5 0.4 0.9 1 0.9z"/><path class="b" d="m23 24.8h6.6c0.5 0 1-0.5 1-1 0-0.5-0.5-0.9-1-0.9h-6.6c-0.6 0-1 0.4-1 0.9 0 0.5 0.4 1 1 1z"/><path class="b" d="m23 34.3h9.5c0.5 0 0.9-0.5 0.9-1 0-0.5-0.4-0.9-0.9-0.9h-9.5c-0.6 0-1 0.4-1 0.9 0 0.5 0.4 1 1 1z"/><path class="b" d="m24.9 41.9c-0.6 0-1 0.4-1 0.9 0 0.5 0.4 1 1 1h7.6c0.5 0 0.9-0.5 0.9-1 0-0.5-0.4-0.9-0.9-0.9z"/><path class="b" d="m23.9 27.6c-0.5 0-0.9 0.4-0.9 1 0 0.5 0.4 0.9 0.9 0.9h7.6c0.5 0 1-0.4 1-0.9 0-0.6-0.5-1-1-1z"/><path class="b" d="m23 39h5.7c0.5 0 0.9-0.4 0.9-0.9 0-0.6-0.4-1-0.9-1h-5.7c-0.6 0-1 0.4-1 1 0 0.5 0.4 0.9 1 0.9z"/><path class="b" d="m35.3 38.1q0-0.4-0.3-0.7-0.3-0.3-0.6-0.3h-1.9c-0.6 0-1 0.4-1 1 0 0.5 0.4 0.9 1 0.9h1.9q0.3 0 0.6-0.3 0.3-0.3 0.3-0.6z"/></g></svg>