<svg version="1.2" xmlns="http://www.w3.org/2000/svg" viewBox="0 0 92 61" width="92" height="61"><defs><clipPath clipPathUnits="userSpaceOnUse" id="cp1"><path d="m-1231-1296h1587v7502h-1587z"/></clipPath></defs><style>.a{fill:#2980e7}.b{fill:#2e526b}</style><g clip-path="url(#cp1)"><path fill-rule="evenodd" class="a" d="m7.8 19.9c0.6 2.1 1.2 2.7 3.3 3.3 0.5 0.2 0.9 0.7 0.9 1.3 0 0.6-0.4 1.1-0.9 1.3-2.1 0.6-2.7 1.2-3.3 3.3-0.2 0.5-0.7 0.9-1.3 0.9-0.6 0-1.1-0.4-1.3-0.9-0.6-2.1-1.2-2.7-3.3-3.3-0.5-0.2-0.9-0.7-0.9-1.3 0-0.6 0.4-1.1 0.9-1.3 2.1-0.6 2.7-1.2 3.3-3.3 0.2-0.5 0.7-0.9 1.3-0.9 0.6 0 1.1 0.4 1.3 0.9zm0.6 4.6c-0.8-0.5-1.4-1.1-1.9-1.9-0.5 0.8-1.1 1.4-1.9 1.9 0.8 0.5 1.4 1.1 1.9 1.9 0.5-0.8 1.1-1.4 1.9-1.9zm2 0.8q0 0 0 0z"/><path fill-rule="evenodd" class="b" d="m76 30.4c0 18.7 0 10.1-0.3 23.7 0 0.5-0.3 0.9-0.9 0.9h-2.6c0 3.4-2.5 6-5.8 6-3.1 0-5.8-2.6-5.7-6h-15.2c0.1 3.4-2.6 6-5.7 6-3.1 0-5.7-2.6-5.7-5.8v-0.2h-1.6v0.2c0 3.2-2.5 5.8-5.8 5.8-3.1 0-5.8-2.6-5.7-6h-3.1c-0.5 0-0.9-0.4-0.9-0.9v-11.1c0-0.6 0.4-1 0.9-1h38.6v-21.1c0-0.5 0.4-0.9 0.9-0.9h11c1.2 0 2.3 0.6 3 1.7l4.1 6.9c0.3 0.5 0.5 1.1 0.5 1.8zm-6.1-7.8c-0.3-0.4-0.9-0.8-1.4-0.8h-10.2v15.2h16v-6.6c0-0.4-0.1-0.7-0.3-0.9l-4.1-6.9zm-11.6 19.4h15.9v-3.1h-15.9zm-27.5 13.1c0-2.2-1.8-4-4-4-2.1 0-3.9 1.8-3.9 4 0 2.2 1.8 4 3.9 4 2.2 0 4-1.8 4-4zm13 0c0-2.2-1.8-4-3.9-4-2.2 0-3.9 1.8-3.9 4 0 2.2 1.7 4 3.9 4 2.2 0 4-1.8 3.9-4zm26.7 0c0-2.2-1.7-4-3.9-4-2.1 0-3.9 1.8-3.9 4 0 2.2 1.8 4 3.9 4 2.2 0 4-1.8 3.9-4zm3.7-11.3h-55.4v9.3h2.7c0.8-2.2 2.8-3.9 5.3-3.9 2.4 0 4.6 1.6 5.4 3.9h2.4c0.8-2.2 2.9-3.9 5.4-3.9 2.4 0 4.5 1.6 5.3 3.9h16c0.8-2.2 2.9-3.9 5.4-3.9 2.4 0 4.6 1.6 5.4 3.9h2.1z"/><path fill-rule="evenodd" class="b" d="m60.9 35c-0.4 0-0.9-0.4-0.9-0.9v-8.2c0-0.5 0.4-0.9 0.9-0.9h5.5c0.4 0 0.6 0.2 0.8 0.4l2.7 4.7c0.1 0.2 0.1 0.3 0.1 0.4v3.6c0 0.5-0.4 0.9-0.9 0.9zm0.9-1.8h6.4v-2.4l-2.3-4h-4.1z"/><path fill-rule="evenodd" class="a" d="m18 22.9c0-0.5 0.4-0.9 0.9-0.9h16.2c0.5 0 0.9 0.4 0.9 0.9v16.2c0 0.5-0.4 0.9-0.9 0.9h-16.2c-0.5 0-0.9-0.4-0.9-0.9zm16.4 15.4v-10.7h-4.2v2c0 0.3-0.2 0.7-0.6 0.8-0.4 0.2-0.7 0-1-0.3l-1.5-1.7-1.5 1.7c-0.3 0.3-0.7 0.4-1 0.3-0.4-0.1-0.7-0.5-0.7-0.8v-2h-4.1v10.7zm-0.2-14.5h-4.1v2h4.1zm-8.5 0v3.4l0.6-0.7c0.2-0.3 0.5-0.4 0.7-0.4 0.3 0 0.6 0.2 0.7 0.4l0.7 0.7v-3.4zm-5.9 0v2h4.2v-2z"/><path fill-rule="evenodd" class="a" d="m54.1 22c0.5 0 0.9 0.4 0.9 0.9v16.2c0 0.5-0.4 0.9-0.9 0.9h-16.2c-0.5 0-0.9-0.4-0.9-0.9v-16.2c0-0.5 0.4-0.9 0.9-0.9zm-15.3 1.8v2h4.1v-2zm14.6 14.4v-10.7h-4.1v2.1c0 0.3-0.3 0.7-0.7 0.7-0.3 0.2-0.7 0-0.9-0.2l-1.6-1.8-1.5 1.8c-0.3 0.2-0.6 0.3-1 0.2-0.3 0-0.6-0.4-0.6-0.7v-2.1h-4.2v10.7zm-0.1-14.4h-4.2v2h4.2zm-8.7 0v3.3l0.7-0.7c0.1-0.3 0.4-0.3 0.7-0.3 0.2 0 0.5 0.1 0.7 0.3l0.6 0.7v-3.3z"/><path fill-rule="evenodd" class="a" d="m27 1.9c0-0.5 0.4-0.9 0.9-0.9h17.2c0.5 0 0.9 0.4 0.9 0.9v17.2c0 0.5-0.4 0.9-0.9 0.9h-17.2c-0.5 0-0.9-0.4-0.9-0.9zm17.3 16.3v-11.4h-4.5v2.2c0 0.4-0.3 0.7-0.6 0.8-0.4 0.1-0.7 0-1-0.3l-1.7-1.9-1.6 1.9c-0.3 0.3-0.7 0.4-1 0.3-0.4-0.1-0.6-0.4-0.6-0.8v-2.2h-4.5v11.4zm-0.1-15.4h-4.5v2.2h4.5zm-9.3 0v3.8l0.8-0.9c0.2-0.2 0.4-0.3 0.7-0.3 0.3 0 0.5 0.2 0.7 0.3l0.8 0.9v-3.8zm-6.2 0v2.2h4.5v-2.2z"/><path fill-rule="evenodd" class="a" d="m87.8 29.9c0.6 2.1 1.2 2.7 3.3 3.3 0.5 0.2 0.9 0.7 0.9 1.3 0 0.6-0.4 1.1-0.9 1.3-2.1 0.6-2.7 1.2-3.3 3.3-0.2 0.5-0.7 0.9-1.3 0.9-0.6 0-1.1-0.4-1.3-0.9-0.6-2.1-1.2-2.7-3.3-3.3-0.5-0.2-0.9-0.7-0.9-1.3 0-0.6 0.4-1.1 0.9-1.3 2.1-0.6 2.7-1.2 3.3-3.3 0.2-0.5 0.7-0.9 1.3-0.9 0.6 0 1.1 0.4 1.3 0.9zm0.6 4.6c-0.8-0.5-1.4-1.1-1.9-1.9-0.5 0.8-1.1 1.4-1.9 1.9 0.8 0.5 1.4 1.1 1.9 1.9 0.5-0.8 1.1-1.4 1.9-1.9zm2 0.8q0 0 0 0z"/></g></svg>