<svg width="55" height="54" viewBox="0 0 55 54" fill="none" xmlns="http://www.w3.org/2000/svg">
<rect x="0.5" width="54" height="54" rx="8" fill="#044FFF"/>
<g clip-path="url(#clip0_2_920)">
<path d="M37.7784 33.3317C37.3284 32.9969 36.6922 33.0903 36.3574 33.5403C36.1732 33.7878 35.9762 34.0306 35.7717 34.2619C35.4002 34.6821 35.4397 35.324 35.8599 35.6955C36.0532 35.8664 36.2931 35.9502 36.5322 35.9502C36.8131 35.9502 37.0928 35.8343 37.2935 35.6073C37.5357 35.3334 37.769 35.0458 37.9871 34.7527C38.3219 34.3027 38.2285 33.6664 37.7784 33.3317Z" fill="white"/>
<path d="M39.477 28.5684C38.9292 28.4491 38.3878 28.7967 38.2686 29.3447C38.2029 29.6462 38.1236 29.9482 38.0326 30.2426C37.867 30.7785 38.1673 31.3472 38.7031 31.5128C38.803 31.5436 38.904 31.5583 39.0033 31.5583C39.437 31.5583 39.8386 31.2783 39.9733 30.8421C40.0813 30.4929 40.1754 30.1344 40.2533 29.7768C40.3726 29.2287 40.025 28.6877 39.477 28.5684Z" fill="white"/>
<path d="M32.8899 36.5841C32.6202 36.7346 32.341 36.8753 32.0601 37.0022C31.5489 37.233 31.3217 37.8346 31.5525 38.3458C31.7221 38.7214 32.0918 38.9436 32.4787 38.9436C32.6185 38.9436 32.7605 38.9146 32.8961 38.8534C33.2294 38.7029 33.5604 38.5361 33.8801 38.3576C34.3699 38.0842 34.5452 37.4655 34.2717 36.9757C33.9984 36.486 33.3797 36.3107 32.8899 36.5841Z" fill="white"/>
<path d="M26.4844 18.875V26.5793L22.7602 30.3035C22.3636 30.7002 22.3636 31.3432 22.7602 31.7398C22.9585 31.9382 23.2184 32.0373 23.4784 32.0373C23.7383 32.0373 23.9982 31.9381 24.1966 31.7398L28.2182 27.7181C28.4087 27.5277 28.5157 27.2693 28.5157 27V18.875C28.5157 18.3141 28.061 17.8594 27.5 17.8594C26.9391 17.8594 26.4844 18.3141 26.4844 18.875Z" fill="white"/>
<path d="M39.4844 16.1836C38.9234 16.1836 38.4688 16.6383 38.4688 17.1992V20.0194C36.1048 16.312 31.9764 14 27.5 14C24.0276 14 20.763 15.3523 18.3076 17.8076C15.8523 20.263 14.5 23.5276 14.5 27C14.5 30.4724 15.8523 33.737 18.3076 36.1924C20.763 38.6477 24.0276 40 27.5 40C27.5086 40 27.5169 39.9989 27.5254 39.9987C27.5339 39.9989 27.5422 40 27.5508 40C27.9168 40 28.2864 39.9846 28.6495 39.9542C29.2085 39.9074 29.6237 39.4163 29.5769 38.8574C29.53 38.2984 29.0396 37.883 28.48 37.9301C28.1731 37.9557 27.8605 37.9688 27.5508 37.9688C27.5422 37.9688 27.5339 37.9698 27.5254 37.97C27.5169 37.9698 27.5086 37.9688 27.5 37.9688C21.4518 37.9688 16.5312 33.0482 16.5312 27C16.5312 20.9518 21.4518 16.0312 27.5 16.0312C31.3979 16.0312 34.983 18.1089 36.9421 21.4141H34.1494C33.5885 21.4141 33.1338 21.8688 33.1338 22.4297C33.1338 22.9906 33.5885 23.4453 34.1494 23.4453H37.25C37.8685 23.4453 38.4472 23.2715 38.9398 22.9704C38.9715 22.9523 39.002 22.9328 39.0311 22.9119C39.9149 22.3304 40.5 21.3301 40.5 20.1953V17.1992C40.5 16.6383 40.0453 16.1836 39.4844 16.1836Z" fill="white"/>
</g>
<defs>
<clipPath id="clip0_2_920">
<rect width="26" height="26" fill="white" transform="translate(14.5 14)"/>
</clipPath>
</defs>
</svg>
