<svg width="48" height="48" viewBox="0 0 48 48" fill="none" xmlns="http://www.w3.org/2000/svg">
<rect width="48" height="48" rx="24" fill="#FFBA4B"/>
<path d="M22.828 32.789C23.7988 32.789 24.5858 32.002 24.5858 31.0312C24.5858 30.0604 23.7988 29.2734 22.828 29.2734C21.8572 29.2734 21.0702 30.0604 21.0702 31.0312C21.0702 32.002 21.8572 32.789 22.828 32.789Z" fill="white"/>
<path d="M28.7263 32.789C29.6972 32.789 30.4842 32.002 30.4842 31.0312C30.4842 30.0604 29.6972 29.2734 28.7263 29.2734C27.7555 29.2734 26.9685 30.0604 26.9685 31.0312C26.9685 32.002 27.7555 32.789 28.7263 32.789Z" fill="white"/>
<path d="M14.5859 16.3829H17.0294L19.8582 26.2857L19.6363 26.7294C19.0521 27.8966 19.9002 29.2734 21.2087 29.2734H31.0702C31.3941 29.2734 31.6561 29.0113 31.6561 28.6875C31.6561 28.3636 31.3941 28.1015 31.0702 28.1015H21.2087C20.7736 28.1015 20.4893 27.6434 20.6846 27.2535L20.8466 26.9297H31.0702C31.3317 26.9297 31.5617 26.7563 31.6338 26.5045L33.9776 18.3015C34.0279 18.1247 33.9924 17.9347 33.882 17.7876C33.771 17.6411 33.5976 17.5547 33.414 17.5547H18.5829L18.0347 15.6361C17.9626 15.3844 17.7326 15.211 17.4711 15.211H14.5859C14.2621 15.211 14 15.473 14 15.7969C14 16.1208 14.2621 16.3829 14.5859 16.3829Z" fill="white"/>
</svg>
