<svg width="75" height="48" viewBox="0 0 75 48" fill="none" xmlns="http://www.w3.org/2000/svg">
<rect width="75" height="48" rx="24" fill="#EF4457"/>
<g clip-path="url(#clip0_2_152)">
<path d="M46.9785 17.508L37.909 12.1125C37.657 11.9626 37.343 11.9626 37.091 12.1125L28.0215 17.508C27.7791 17.6522 27.6305 17.9135 27.6305 18.1956V21.2756C27.6305 27.7628 31.3786 33.6879 37.2111 35.9461C37.3968 36.018 37.603 36.0181 37.7888 35.9461C43.6072 33.6935 47.3694 27.7813 47.3694 21.2756V18.1956C47.3695 17.9135 47.2209 17.6522 46.9785 17.508ZM41.4523 22.2024L36.4384 27.2164C36.1259 27.5288 35.6194 27.5288 35.307 27.2164L33.5473 25.4567C33.2349 25.1444 33.2349 24.6378 33.5473 24.3254C33.8597 24.013 34.3663 24.013 34.6787 24.3254L35.8726 25.5193L40.321 21.071C40.6333 20.7586 41.1399 20.7586 41.4523 21.071C41.7648 21.3834 41.7648 21.89 41.4523 22.2024Z" fill="white"/>
</g>
<defs>
<clipPath id="clip0_2_152">
<rect width="24" height="24" fill="white" transform="translate(25.5 12)"/>
</clipPath>
</defs>
</svg>
