<svg width="55" height="54" viewBox="0 0 55 54" fill="none" xmlns="http://www.w3.org/2000/svg">
<rect x="0.5" width="54" height="54" rx="8" fill="#044FFF"/>
<path d="M36.4889 19.7695H32.7225V17.4161C32.7225 16.3533 31.849 15.4888 30.7754 15.4888H24.2247C23.151 15.4888 22.2775 16.3534 22.2775 17.4161V19.7695H18.5111C16.2994 19.7695 14.5 21.5689 14.5 23.7806V35.2352C14.5 37.0418 15.9698 38.5116 17.7764 38.5116H37.2236C39.0302 38.5116 40.5 37.0418 40.5 35.2352V23.7806C40.4999 21.5689 38.7006 19.7695 36.4889 19.7695ZM23.8056 17.4161C23.8056 17.1885 23.9858 17.0168 24.2247 17.0168H30.7753C31.0142 17.0168 31.1944 17.1885 31.1944 17.4161V19.7695H23.8056V17.4161ZM38.9718 35.2352C38.9719 36.1992 38.1876 36.9835 37.2236 36.9835H17.7764C16.8123 36.9835 16.0281 36.1992 16.0281 35.2352V28.0985C16.2673 28.2487 16.529 28.3703 16.8097 28.4571C16.8243 28.4615 16.839 28.4656 16.8539 28.4693L24.6377 30.3716V31C24.6377 31.9865 25.4403 32.7892 26.4269 32.7892H28.573C29.5596 32.7892 30.3623 31.9865 30.3623 31V30.3716L38.1461 28.4693C38.161 28.4657 38.1757 28.4616 38.1903 28.4571C38.471 28.3703 38.7326 28.2487 38.9719 28.0985V35.2352H38.9718ZM26.1658 31V28.8442C26.1658 28.7002 26.283 28.583 26.427 28.583H28.5731C28.7171 28.583 28.8342 28.7002 28.8342 28.8442V31C28.8342 31.144 28.7171 31.2611 28.5731 31.2611H26.427C26.283 31.2611 26.1658 31.1439 26.1658 31ZM38.9719 25.3204C38.9719 26.0885 38.4855 26.7571 37.7591 26.9908L30.3612 28.7988C30.337 27.8331 29.5445 27.0549 28.5731 27.0549H26.427C25.4556 27.0549 24.6631 27.8332 24.6389 28.7988L17.2409 26.9909C16.5145 26.7571 16.0281 26.0885 16.0281 25.3204V23.7806C16.0281 22.4115 17.1419 21.2976 18.5111 21.2976H36.4889C37.858 21.2976 38.9719 22.4115 38.9719 23.7806V25.3204H38.9719Z" fill="white"/>
</svg>
